PathFileType	4	(X/Y/Z)	E:\Studenten\Marcel_BSc\Hannes_22_01_2025\22-01-2025\static_01.trc
DataRate	CameraRate	NumFrames	NumMarkers	Units	OrigDataRate	OrigDataStartFrame	OrigNumFrames
200.0	200.0	6	59	mm	200.0	249	497	
Frame#	Time	FHD			LBHD			RBHD			RBAR			LBAR			RASI			RSACR			LSACR			LASI			USACR			C7			CLAV			T10			RSHO			LSHO			LTHI1			LTHI3			LTHI2			LLFC			LMFC			LTIB1			LTIB2			LTIB3			LMMAL			LLMAL			LHEE			LMT1			LMT5			LMT3			RTHI1			RTHI2			RTHI3			RLFC			RMFC			RTIB1			RTIB3			RTIB2			RLMAL			RMMAL			RHEE			RMT5			RMT1			RMT3			LMEP			LLEP			LDUPA			LMUPA			LUUPA			LUL			LRAD			LRFIN			RUL			RRAD			RUFIN			RMEP			RLEP			RMUPA			RDUPA			RUUPA			
		X1	Y1	Z1	X2	Y2	Z2	X3	Y3	Z3	X4	Y4	Z4	X5	Y5	Z5	X6	Y6	Z6	X7	Y7	Z7	X8	Y8	Z8	X9	Y9	Z9	X10	Y10	Z10	X11	Y11	Z11	X12	Y12	Z12	X13	Y13	Z13	X14	Y14	Z14	X15	Y15	Z15	X16	Y16	Z16	X17	Y17	Z17	X18	Y18	Z18	X19	Y19	Z19	X20	Y20	Z20	X21	Y21	Z21	X22	Y22	Z22	X23	Y23	Z23	X24	Y24	Z24	X25	Y25	Z25	X26	Y26	Z26	X27	Y27	Z27	X28	Y28	Z28	X29	Y29	Z29	X30	Y30	Z30	X31	Y31	Z31	X32	Y32	Z32	X33	Y33	Z33	X34	Y34	Z34	X35	Y35	Z35	X36	Y36	Z36	X37	Y37	Z37	X38	Y38	Z38	X39	Y39	Z39	X40	Y40	Z40	X41	Y41	Z41	X42	Y42	Z42	X43	Y43	Z43	X44	Y44	Z44	X45	Y45	Z45	X46	Y46	Z46	X47	Y47	Z47	X48	Y48	Z48	X49	Y49	Z49	X50	Y50	Z50	X51	Y51	Z51	X52	Y52	Z52	X53	Y53	Z53	X54	Y54	Z54	X55	Y55	Z55	X56	Y56	Z56	X57	Y57	Z57	X58	Y58	Z58	X59	Y59	Z59	
249	1.24	66.629227	1709.7112	-1220.9041	150.96532	1680.483	-1119.9586	163.63091	1675.6652	-1314.1935	-530.17682	25.857248	-2111.5369	-499.42862	36.273129	112.2753	110.08714	988.40356	-1329.6361	302.96466	1050.1096	-1256.1023	303.60757	1055.2498	-1148.6731	116.79169	995.15955	-1060.7411	304.09747	1074.4241	-1201.6295	294.04297	1170.6316	-1201.9143	124.5727	1450.3893	-1206.5863	294.91257	1492.8789	-1206.604	274.49829	1484.4962	-1366.1544	273.06439	1491.3556	-1046.1235	212.89047	792.20819	-982.92242	184.01434	731.95264	-973.43085	234.04723	728.96509	-982.3432	223.41818	504.17389	-998.66492	206.58963	464.9527	-1106.547	319.70734	278.00433	-966.70105	269.30807	267.85928	-961.72461	306.08203	214.09254	-968.40765	277.46228	86.190544	-1054.3763	309.67401	80.10347	-965.95264	354.49405	22.016373	-1015.2355	142.83846	40.009399	-996.74658	185.67052	26.611895	-915.6427	149.06512	30.102713	-948.5686	222.50359	782.10187	-1410.2617	190.66154	724.33148	-1417.3356	240.0531	717.90875	-1408.8038	218.11127	494.7851	-1384.0549	196.03355	477.57648	-1277.4531	294.99887	274.36124	-1422.7728	244.94925	277.35315	-1414.4264	268.64151	215.69962	-1414.0048	295.12457	79.962486	-1409.9283	257.49548	83.352005	-1322.6986	343.88214	30.188147	-1366.356	184.12933	27.387398	-1460.9545	124.55763	36.008377	-1389.7056	135.76012	28.372654	-1438.1439	216.94792	1356.8359	-769.27222	280.19226	1447.3267	-761.86694	288.85269	1440.7316	-828.82977	254.45375	1482.6779	-887.26721	291.6828	1449.4918	-890.00641	200.50165	1479.8905	-519.4024	158.36865	1500.8519	-533.75507	116.28381	1491.5239	-433.17661	216.97449	1469.0748	-1901.7209	173.58052	1493.9232	-1883.2046	157.09486	1489.4468	-1995.9482	230.56201	1352.8322	-1638.1306	296.01242	1440.7421	-1653.2363	310.54895	1426.5475	-1547.916	290.4285	1451.6921	-1585.6588	290.95358	1471.9449	-1508.9779
250	1.245	66.571693	1709.7234	-1220.8896	150.95966	1680.4757	-1119.9637	163.57883	1675.6749	-1314.181	-530.22443	25.826651	-2111.3618	-499.43231	36.267784	112.27243	110.05063	988.37219	-1329.6478	302.95645	1050.1027	-1256.1062	303.59534	1055.2424	-1148.6704	116.79604	995.1582	-1060.7356	304.091	1074.4252	-1201.6307	294.05234	1170.6326	-1201.9075	124.56355	1450.3831	-1206.5952	294.90848	1492.8866	-1206.6127	274.50656	1484.4839	-1366.1606	273.06577	1491.3605	-1046.1245	212.8439	791.95612	-982.84308	184.02924	731.94763	-973.43201	234.05959	728.94586	-982.33252	223.43355	504.18533	-998.65875	206.58626	464.94821	-1106.5363	319.7106	277.99728	-966.7168	269.31702	267.86447	-961.71234	306.08475	214.07697	-968.41547	277.46494	86.186508	-1054.3788	309.67032	80.12056	-965.95343	354.49756	21.995615	-1015.237	142.84091	40.009762	-996.74451	185.67296	26.615032	-915.64703	149.06285	30.105869	-948.56897	222.49127	782.10016	-1410.2548	190.64845	724.33972	-1417.3403	239.94099	718.19708	-1408.6653	218.09898	494.78592	-1384.0477	196.00575	477.56393	-1277.4355	294.98865	274.35489	-1422.788	244.85187	277.40289	-1414.2284	268.64355	215.69507	-1414.0029	295.121	79.959442	-1409.9241	257.49854	83.350334	-1322.6998	343.87836	30.173603	-1366.3473	184.12054	27.409138	-1460.963	124.55187	36.010788	-1389.7043	135.75726	28.381048	-1438.1499	216.95901	1356.8448	-769.28729	280.1777	1447.3403	-761.87683	288.81747	1440.7502	-828.83801	254.43793	1482.675	-887.27686	291.67749	1449.5144	-890.00366	200.50264	1479.9128	-519.40521	158.35031	1500.8621	-533.76678	116.25999	1491.5195	-433.1813	216.91899	1469.078	-1901.7452	173.52826	1493.8965	-1883.2008	157.01955	1489.4347	-1995.9388	230.56297	1352.8141	-1638.1345	295.98102	1440.7427	-1653.2532	310.53845	1426.5635	-1547.9346	290.42218	1451.6775	-1585.6819	290.9227	1471.9563	-1508.9949
251	1.25	66.564079	1709.7073	-1220.8928	150.95737	1680.4596	-1119.9833	163.55905	1675.6543	-1314.1942	-530.20837	25.801853	-2111.5374	-499.42746	36.2672	112.26551	110.03352	988.36804	-1329.6421	302.93985	1050.1127	-1256.105	303.59988	1055.2463	-1148.6715	116.80415	995.14124	-1060.7437	304.10031	1074.4224	-1201.6277	294.0571	1170.6267	-1201.8923	124.56824	1450.3636	-1206.615	295.1044	1493.0181	-1206.6624	274.50058	1484.4707	-1366.1722	273.04309	1491.3575	-1046.1447	212.84682	791.94946	-982.86383	184.02989	731.93048	-973.42651	234.06837	728.94135	-982.34637	223.40456	504.19342	-998.64563	206.57916	464.94971	-1106.5348	319.71167	277.98694	-966.71704	269.34299	267.86362	-961.70618	306.1041	214.08353	-968.40393	277.4632	86.18763	-1054.3806	309.65872	80.099991	-965.93872	354.49631	21.992882	-1015.2309	142.83675	40.004864	-996.74243	185.67671	26.602882	-915.64062	149.06534	30.107342	-948.56403	222.48601	782.11304	-1410.2578	190.63759	724.34363	-1417.3455	239.93709	718.20953	-1408.6797	218.0955	494.77551	-1384.0438	195.99821	477.57504	-1277.4418	295.0029	274.35544	-1422.7709	244.90791	277.38504	-1414.3582	268.63318	215.6989	-1414.0057	295.12616	79.976334	-1409.9163	257.50244	83.344818	-1322.6998	343.85321	30.168983	-1366.381	184.12767	27.400608	-1460.9585	124.55138	36.020916	-1389.6998	135.75706	28.371647	-1438.1522	216.96747	1356.8564	-769.29327	280.17108	1447.3535	-761.88995	288.81546	1440.7626	-828.83911	254.42114	1482.6876	-887.28497	291.68845	1449.5342	-890.00079	200.49191	1479.9222	-519.41766	158.33258	1500.8752	-533.77185	116.25051	1491.509	-433.18756	216.86194	1469.0637	-1901.744	173.47304	1493.8639	-1883.1945	156.93567	1489.4369	-1995.9146	230.57111	1352.8134	-1638.1104	295.9541	1440.7451	-1653.2667	310.51373	1426.5748	-1547.9398	290.39212	1451.6848	-1585.6864	290.88663	1471.964	-1508.9908
252	1.255	66.573318	1709.6666	-1220.9114	150.93927	1680.4607	-1119.9868	163.5499	1675.6398	-1314.2056	-530.16132	25.832504	-2111.5452	-499.42633	36.267109	112.26886	110.02464	988.37402	-1329.6393	302.95682	1050.0911	-1256.1088	303.60135	1055.238	-1148.6699	116.80891	995.12909	-1060.7383	304.08969	1074.4224	-1201.6283	294.05936	1170.6149	-1201.8872	124.58656	1450.3317	-1206.6317	295.10846	1493.0182	-1206.6904	274.48822	1484.4688	-1366.1796	273.03918	1491.3552	-1046.1451	212.89803	792.20581	-982.92694	184.02721	731.92542	-973.43103	234.06378	728.94208	-982.32355	223.40248	504.18497	-998.646	206.56432	464.94434	-1106.5343	319.69339	277.99277	-966.7146	269.32309	267.81564	-961.74512	306.09854	214.07899	-968.4079	277.45706	86.190414	-1054.3787	309.6716	80.098984	-965.95422	354.48422	22.002195	-1015.2217	142.83356	40.007893	-996.74634	185.67719	26.592569	-915.64362	149.06593	30.084187	-948.57153	222.4734	782.10938	-1410.2615	190.63263	724.34937	-1417.3435	239.92595	718.21112	-1408.6639	218.07906	494.77829	-1384.036	195.98634	477.57285	-1277.4486	294.96719	274.36807	-1422.7854	244.8824	277.38998	-1414.2677	268.62784	215.71008	-1413.9973	295.11295	79.974663	-1409.9116	257.48108	83.340393	-1322.6917	343.85104	30.172462	-1366.3722	184.12955	27.40304	-1460.9528	124.55173	36.015182	-1389.7017	135.75613	28.364651	-1438.1429	216.95337	1356.8553	-769.29993	280.15591	1447.3615	-761.88971	288.80856	1440.7903	-828.84009	254.40388	1482.6852	-887.30023	291.66385	1449.5387	-890.01355	200.48018	1479.938	-519.4259	158.32707	1500.8831	-533.78894	116.23743	1491.506	-433.1926	216.79993	1469.0573	-1901.7501	173.39915	1493.837	-1883.1869	156.87572	1489.4192	-1995.9014	230.48305	1352.8286	-1638.0685	295.90625	1440.7445	-1653.2483	310.4917	1426.5858	-1547.9517	290.36264	1451.7041	-1585.6669	290.86597	1471.9519	-1508.9911
253	1.26	66.510071	1709.6927	-1220.899	150.93188	1680.4438	-1119.9994	163.52257	1675.6436	-1314.2074	-530.24652	25.794744	-2111.4026	-499.4115	36.266899	112.25909	110.02924	988.36786	-1329.6364	302.9447	1050.0856	-1256.1106	303.59671	1055.2397	-1148.6624	116.80573	995.13373	-1060.7344	304.08847	1074.4197	-1201.6251	294.0567	1170.6138	-1201.8824	124.56689	1450.3152	-1206.6312	294.8898	1492.8999	-1206.6375	274.48175	1484.4749	-1366.1833	273.02991	1491.3638	-1046.1543	212.94136	792.17566	-982.90082	184.01366	731.91388	-973.42542	234.08546	728.92773	-982.3252	223.38127	504.16016	-998.63977	206.55965	464.94424	-1106.5171	319.69937	277.97549	-966.7229	269.29907	267.84598	-961.70654	306.08948	214.06815	-968.41345	277.45959	86.189499	-1054.379	309.65939	80.097694	-965.93048	354.49023	22.000637	-1015.2204	142.83263	40.006413	-996.73395	185.67232	26.597368	-915.64203	149.06258	30.081703	-948.56848	222.46281	782.10687	-1410.2563	190.62311	724.34033	-1417.3428	239.91483	718.23285	-1408.6731	218.07385	494.79099	-1384.0372	195.97403	477.56778	-1277.4541	294.98972	274.36884	-1422.7705	244.86281	277.39188	-1414.2804	268.62939	215.69011	-1413.9991	295.11511	79.961052	-1409.9214	257.48233	83.332855	-1322.6923	343.85452	30.172812	-1366.3715	184.13499	27.40213	-1460.9539	124.54871	36.010036	-1389.6978	135.75467	28.355524	-1438.1425	216.96634	1356.856	-769.30927	280.14883	1447.3696	-761.90912	288.80124	1440.7969	-828.84448	254.38255	1482.6807	-887.29529	291.65833	1449.5411	-890.01678	200.45947	1479.9541	-519.43018	158.31119	1500.8887	-533.79431	116.218	1491.4948	-433.19974	216.74124	1469.0579	-1901.7391	173.33154	1493.8109	-1883.1855	156.78485	1489.4082	-1995.8774	230.45863	1352.8293	-1638.0554	295.87222	1440.75	-1653.255	310.4758	1426.6007	-1547.9653	290.33444	1451.7109	-1585.6714	290.83859	1471.9653	-1508.9922
254	1.265	66.453438	1709.6998	-1220.8804	150.9343	1680.4413	-1120.011	163.49803	1675.6488	-1314.2142	-530.19031	25.80706	-2111.4929	-499.42615	36.269535	112.27182	110.01476	988.36304	-1329.6334	302.93988	1050.0853	-1256.1093	303.59741	1055.2301	-1148.6615	116.8055	995.12231	-1060.7219	304.08652	1074.4141	-1201.6259	294.06982	1170.6049	-1201.8761	124.56968	1450.2999	-1206.6505	295.09857	1493.0292	-1206.6981	274.4765	1484.4663	-1366.1906	273.02792	1491.3667	-1046.1489	212.92949	792.16815	-982.89844	184.01199	731.91028	-973.43463	234.07855	728.9021	-982.3222	223.38962	504.151	-998.64227	206.55276	464.94641	-1106.528	319.67981	277.97089	-966.72034	269.29327	267.81238	-961.71851	306.09457	214.07747	-968.41394	277.45587	86.184242	-1054.3815	309.66794	80.095665	-965.95227	354.49716	21.992882	-1015.2074	142.82487	40.012184	-996.73407	185.66618	26.589321	-915.63989	149.06508	30.087189	-948.55585	222.4577	782.10938	-1410.2513	190.60658	724.34741	-1417.3367	240.02588	717.88306	-1408.786	218.06662	494.79031	-1384.0435	195.96747	477.55496	-1277.4344	294.98459	274.36453	-1422.7628	244.87271	277.35693	-1414.2427	268.63013	215.70946	-1414.0037	295.12225	79.958733	-1409.915	257.49548	83.325737	-1322.693	343.87173	30.181267	-1366.3492	184.09021	27.285112	-1460.8745	124.54925	36.014107	-1389.688	135.75249	28.358952	-1438.1387	216.96712	1356.8656	-769.31299	280.15128	1447.3663	-761.89386	288.80801	1440.8203	-828.84729	254.38327	1482.681	-887.30438	291.64996	1449.5448	-890.01398	200.46648	1479.9703	-519.41748	158.32037	1500.9019	-533.79803	116.21178	1491.5011	-433.1965	216.69371	1469.0298	-1901.7643	173.27696	1493.7871	-1883.1873	156.71593	1489.4016	-1995.8579	230.43781	1352.8286	-1638.0453	295.8396	1440.7572	-1653.2686	310.45486	1426.6078	-1547.9711	290.28204	1451.6864	-1585.7068	290.79645	1471.9532	-1508.985
